<svg width="640" height="696" viewBox="0 0 640 696" fill="none" xmlns="http://www.w3.org/2000/svg">
<path d="M283.836 403L254.648 351.838L286.869 291H350.782L383.217 347.006L351.058 403H283.836ZM360 691.577V423.602L593.515 557.671L594.314 558.129L594.836 557.371L618.018 523.769L618.065 523.701L618.1 523.626L635.268 486.974L635.659 486.14L634.861 485.682L398.511 349.986L636.97 211.934L637.774 211.469L637.369 210.633L619.545 173.836L619.512 173.769L619.47 173.707L596.68 140.376L596.156 139.61L595.353 140.075L360 276.329V3.90503V2.95015L359.046 2.90609L317.801 1.00106L317.754 0.998921L317.708 1.00109L276.953 2.90612L276 2.95068V3.90503V276.598L44.4971 139.658L43.6834 139.177L43.1572 139.962L21.5177 172.262L21.4849 172.311L21.4581 172.363L3.69705 207.096L3.26558 207.939L4.08494 208.416L240.292 345.681L2.33632 482.523L1.53129 482.986L1.9335 483.823L19.8886 521.189L19.9166 521.247L19.952 521.302L40.8187 553.33L41.3323 554.118L42.1504 553.653L277 420.279V691.577V692.519L277.941 692.575L318.824 694.998L318.883 695.002L318.943 694.998L359.06 692.575L360 692.518V691.577Z" fill="#FFFEFE" stroke="#1E1E1E" stroke-width="2"/>
</svg>
