<svg width="692" height="693" viewBox="0 0 692 693" fill="none" xmlns="http://www.w3.org/2000/svg">
<path d="M627 346C627 501.192 501.192 627 346 627C190.808 627 65 501.192 65 346C65 190.808 190.808 65 346 65C501.192 65 627 190.808 627 346ZM346 629C502.297 629 629 502.297 629 346C629 189.703 502.297 63 346 63C189.703 63 63 189.703 63 346C63 502.297 189.703 629 346 629ZM691 346.5C691 537.316 536.537 692 346 692C155.463 692 1.00012 537.316 1.00012 346.5C1.00012 155.684 155.463 1 346 1C536.537 1 691 155.684 691 346.5Z" fill="#FFFEFE" stroke="#1E1E1E" stroke-width="2"/>
</svg>
